<svg xmlns="http://www.w3.org/2000/svg" xmlns:xlink="http://www.w3.org/1999/xlink" width="35" height="32" viewBox="0 0 35 33"><defs><path id="bcuqa" d="M822 1412.5a1.5 1.5 0 0 1-2.52 1.1l-13.44-13.44-.04-.04-13.45 13.45a1.5 1.5 0 1 1-2.1-2.15l14.47-14.46a1.5 1.5 0 0 1 1.08-.46h.09a1.97 1.97 0 0 1 .07 0c.37.05.7.22.94.48l5.9 5.9v-1.38a1.5 1.5 0 1 1 3 0v4.38l5.6 5.6c.24.27.4.62.4 1.02zm-3 2.5v10.5c0 .83-.67 1.5-1.5 1.5h-3v-12h-6v12h-14a1.5 1.5 0 0 1-1.5-1.5V1415l13-13zm-15.5 0h-6v6h6z"/></defs><g><g transform="translate(-788 -1395)"><use fill="#95e1d3" xlink:href="#bcuqa"/></g></g></svg>