<svg xmlns="http://www.w3.org/2000/svg" xmlns:xlink="http://www.w3.org/1999/xlink" width="35" height="32" viewBox="0 0 35 35"><defs><path id="a" d="M821.5 1258h-29a1.5 1.5 0 0 1-1.5-1.5v-29c0-.83.67-1.5 1.5-1.5h29c.83 0 1.5.67 1.5 1.5v29c0 .83-.67 1.5-1.5 1.5zm-1.5-29h-26v26h26zm-23.78 13.24l4-2.5a1.5 1.5 0 0 1 1.62.03l6.64 4.42 7.63-5.4c.25-.18.56-.28.89-.28a1.5 1.5 0 0 1 .88 2.71l-8.5 6a1.5 1.5 0 0 1-1.74.01l-6.66-4.43-3.13 1.95a1.5 1.5 0 0 1-1.63-2.52z"/></defs><use fill="#95e1d3" xlink:href="#a" transform="translate(-790 -1224)"/></svg>