<svg id="SVGDoc" width="34" height="34" xmlns="http://www.w3.org/2000/svg" version="1.1" xmlns:xlink="http://www.w3.org/1999/xlink" xmlns:avocode="https://avocode.com/" viewBox="0 0 34 34"><defs><path d="M420.73963,1236.50283c-1.58329,-3.69621 -4.54651,-6.65973 -8.24226,-8.24276c0.99941,-0.78676 2.25735,-1.26011 3.62823,-1.26011c3.24429,0 5.87437,2.62973 5.87437,5.87403c0,1.37097 -0.47333,2.62867 -1.26034,3.62884zM420.49999,1242.99973c0,3.85223 -1.51222,7.34317 -3.96252,9.94012l2.02812,2.02784c0.26836,0.26885 0.43442,0.6395 0.43442,1.04896c0,0.81908 -0.6641,1.48304 -1.48315,1.48304c-0.40958,0 -0.78037,-0.16569 -1.04874,-0.43454l-2.1785,-2.17857c-2.3505,1.64269 -5.20477,2.61311 -8.28964,2.61311c-3.0788,0 -5.92815,-0.96619 -8.27602,-2.60299l-2.16328,2.16362c-0.27157,0.27126 -0.64648,0.43937 -1.06075,0.43937c-0.82832,0 -1.49998,-0.67182 -1.49998,-1.50026c0,-0.41369 0.16788,-0.78917 0.43934,-1.06044l2.01187,-2.01153c-2.44343,-2.59589 -3.95119,-6.08216 -3.95119,-9.92774c0,-8.00789 6.49189,-14.50012 14.50001,-14.50012c8.00812,0 14.50001,6.49222 14.50001,14.50012zM405.99998,1231.49954c-6.35136,0 -11.50005,5.14859 -11.50005,11.5002c0,6.35146 5.1487,11.50005 11.50005,11.50005c6.35124,0 11.49994,-5.14859 11.49994,-11.50005c0,-6.35161 -5.1487,-11.5002 -11.49994,-11.5002zM412.00001,1244.49984h-6.00002c-0.82844,0 -1.49998,-0.67167 -1.49998,-1.50011v-8.00019c0,-0.82799 0.67154,-1.49966 1.49998,-1.49966c0.82844,0 1.49998,0.67167 1.49998,1.49966v6.49993h4.50005c0.82844,0 1.49998,0.67167 1.49998,1.50026c0,0.82844 -0.67154,1.50011 -1.49998,1.50011zM391.28723,1236.70537c-0.80383,-1.02041 -1.28723,-2.30545 -1.28723,-3.70557c0,-3.31408 2.68627,-5.99984 5.99991,-5.99984c1.40018,0 2.68513,0.48347 3.70594,1.28685c-3.77495,1.61717 -6.80157,4.64382 -8.41862,8.41857z" id="Path-0"/></defs><desc>Generated with Avocode.</desc><g transform="matrix(1,0,0,1,-389,-1225)"><g><title>ALARM</title><use xlink:href="#Path-0" fill="#95e1d3" fill-opacity="1"/></g></g></svg>