<svg xmlns="http://www.w3.org/2000/svg" xmlns:xlink="http://www.w3.org/1999/xlink" width="35" height="32" viewBox="0 0 35 34"><defs><path id="a" d="M422.06 1421.89l-14.47 5.99a1.5 1.5 0 0 1-1.18 0l-14.47-6a1.5 1.5 0 0 1-.94-1.38v-23a1.5 1.5 0 0 1 2.07-1.39l.02.01 13.91 5.76 13.91-5.76h.01a1.5 1.5 0 0 1 2.07 1.39v22.99a1.5 1.5 0 0 1-.93 1.39zm-16.56-17.39l-11.5-4.76v19.76l11.5 4.76zm14.5-4.76l-11.5 4.76v19.76l11.5-4.76zm-9.12 6.9l5.5-2.5a1.5 1.5 0 0 1 1.24 2.73l-5.5 2.5a1.5 1.5 0 0 1-1.24-2.73zm0 5.5l5.5-2.5a1.5 1.5 0 0 1 1.24 2.73l-5.5 2.5a1.5 1.5 0 0 1-1.24-2.73zm0 5.5l5.5-2.5a1.5 1.5 0 0 1 1.24 2.73l-5.5 2.5a1.5 1.5 0 0 1-1.24-2.73zM397 1404c.22 0 .43.05.62.13l5.5 2.5a1.5 1.5 0 0 1-1.24 2.74l-5.5-2.5a1.5 1.5 0 0 1 .62-2.87zm0 5.5c.22 0 .43.05.62.13l5.5 2.5a1.5 1.5 0 1 1-1.24 2.73l-5.5-2.5a1.5 1.5 0 0 1 .62-2.86zm0 5.5c.22 0 .43.05.62.13l5.5 2.5a1.5 1.5 0 0 1-1.24 2.74l-5.5-2.5a1.5 1.5 0 0 1 .62-2.87z"/></defs><use fill="#95e1d3" xlink:href="#a" transform="translate(-389 -1395)"/></svg>